# xmcd
#
# Track frame offsets:
#	150
#	11687
#	25095
#	37232
#	48835
#	59065
#	72825
#	86237
#	100105
#	111282
#	126300
#	143620
#	154297
#	165915
#	181120
#	193205
#	206655
#	219870
#	237905
#	251115
#
# Disc length: 3468
#
# Revision: 1
# Processed by: cddbd v1.5.1PL0 Copyright (c) Steve Scherf et al.
# Submitted via: CD-DA_X-Tractor v0.21
# Normalized: r0:TDELIM( - )
#
DISCID=1f0d8a14
DTITLE=Various Artist - Country Classics
DYEAR=1900
DGENRE=
TTITLE0=Patsy Cline - Walkin' After Midnight
TTITLE1=Kenny Rogers - Ruby Don't Take Your Love To Town
TTITLE2=Waylon Jennings - Don't Think Twice It's Alright
TTITLE3=Freddy Fender - Before The Next Tear Drop Falls
TTITLE4=The Everly Brothers - All I Have To Do Is Dream
TTITLE5=Wayne Horseburgh - Can You Hear Those Poineers
TTITLE6=Pattie Page - Tennessee Waltz
TTITLE7=George  Jones - It's Been A Good Year For Roses
TTITLE8=Peter Horan - Goanna
TTITLE9=Jeannie C.Riley - Harper Valley P.T.A
TTITLE10=Jean Stafford - Sunshine Rain
TTITLE11=Lynn Anderson - Silver Threads and Golden Needles
TTITLE12=Willie Nelson - Is There Something On Your Mind
TTITLE13=Phil Emmanuel - Loose Bootee Boogie
TTITLE14=Susan Ray - La International Airport
TTITLE15=Alabama - Patches
TTITLE16=Freddy Fender - Wasted Days and Wasted Nights
TTITLE17=Reg Lindsay - Country All The Way
TTITLE18=Lynn Anderson - Rose Garden
TTITLE19=FRankie Laine - Rawhide
EXTD=
EXTT0=
EXTT1=
EXTT2=
EXTT3=
EXTT4=
EXTT5=
EXTT6=
EXTT7=
EXTT8=
EXTT9=
EXTT10=
EXTT11=
EXTT12=
EXTT13=
EXTT14=
EXTT15=
EXTT16=
EXTT17=
EXTT18=
EXTT19=
PLAYORDER=
